<svg xmlns="http://www.w3.org/2000/svg" xmlns:xlink="http://www.w3.org/1999/xlink" viewBox="0 0 1188.8 280.06"><defs><style>.cls-1,.cls-2,.cls-3{opacity:0.3;}.cls-1{fill:url(#Degradado_sin_nombre);}.cls-2{fill:url(#Degradado_sin_nombre-2);}.cls-3{fill:url(#Degradado_sin_nombre-3);}</style><linearGradient id="Degradado_sin_nombre" y1="-436.86" x2="606.68" y2="-436.86" gradientTransform="matrix(1, 0, 0, -1, 0, -202.14)" gradientUnits="userSpaceOnUse"><stop offset="0" stop-color="#fc1f6f"/><stop offset="1" stop-color="#4ec3f9"/></linearGradient><linearGradient id="Degradado_sin_nombre-2" y1="-342.17" x2="1188.8" y2="-342.17" xlink:href="#Degradado_sin_nombre"/><linearGradient id="Degradado_sin_nombre-3" x1="0.01" y1="-385.7" x2="952.78" y2="-385.7" xlink:href="#Degradado_sin_nombre"/></defs><g id="Capa_2" data-name="Capa 2"><g id="Capa_1-2" data-name="Capa 1"><path class="cls-1" d="M463.73,242.77c-83.79-24-170.45-48.75-259.19-52.7C136.31,187,67.86,194.85,0,207.35V280H606.68C558,269.72,510.38,256.11,463.73,242.77Z"/><path class="cls-2" d="M216.93,70.05c91.42,5.09,176.45,36,258.69,66,72.84,26.51,148.16,53.92,227.32,63.06,98.29,11.35,189.79,41.73,278.27,71.11q14.79,4.92,29.7,9.84H1188.8c-75-15.26-145.69-41-214.45-66.05-87-31.7-177-64.49-274.25-75.2-84.31-9.31-160.8-39.88-234.78-69.48C383.72,36.69,306.64,5.87,219.58.87,145.73-3.39,72.35,8.41,0,26.5V92.13C71.46,76.07,143.92,65.93,216.93,70.05Z"/><path class="cls-3" d="M205.68,172.2c91.75,4.09,179.85,29.29,265,53.66,75,21.45,152.54,43.63,231.88,51.12,9.18.86,18.31,1.92,27.41,3.06H952.78c-80.93-26.76-164.55-53-252.8-63.23-82.1-9.48-158.8-37.4-233-64.39-84.23-30.67-163.82-59.64-251.5-64.49-71.92-4-144,6.47-215.47,22.83v78.32C67.94,176.74,136.68,169.12,205.68,172.2Z"/></g></g></svg>