<svg xmlns="http://www.w3.org/2000/svg" xmlns:xlink="http://www.w3.org/1999/xlink" viewBox="0 0 1402.13 762.11"><defs><style>.cls-1{isolation:isolate;}.cls-2{mix-blend-mode:screen;opacity:0.3;}.cls-3{fill:url(#Degradado_sin_nombre_8);}.cls-4{fill:url(#Degradado_sin_nombre_8-2);}.cls-5{fill:url(#Degradado_sin_nombre_8-3);}.cls-6{fill:url(#Degradado_sin_nombre_8-4);}.cls-7{fill:url(#Degradado_sin_nombre_8-5);}.cls-8{fill:url(#Degradado_sin_nombre_8-6);}.cls-9{fill:url(#Degradado_sin_nombre_8-7);}.cls-10{fill:url(#Degradado_sin_nombre_8-8);}.cls-11{fill:url(#Degradado_sin_nombre_8-9);}.cls-12{fill:url(#Degradado_sin_nombre_8-10);}</style><linearGradient id="Degradado_sin_nombre_8" x1="0.01" y1="255.54" x2="1402.13" y2="255.54" gradientUnits="userSpaceOnUse"><stop offset="0" stop-color="#fc1f6f"/><stop offset="1" stop-color="#4ec3f9"/></linearGradient><linearGradient id="Degradado_sin_nombre_8-2" x1="0.01" y1="716.79" x2="606.68" y2="716.79" xlink:href="#Degradado_sin_nombre_8"/><linearGradient id="Degradado_sin_nombre_8-3" x1="1395.58" y1="761.38" x2="1402.13" y2="761.38" xlink:href="#Degradado_sin_nombre_8"/><linearGradient id="Degradado_sin_nombre_8-4" x1="0.01" y1="84.97" x2="1402.13" y2="84.97" xlink:href="#Degradado_sin_nombre_8"/><linearGradient id="Degradado_sin_nombre_8-5" x1="0.01" y1="163.9" x2="1402.13" y2="163.9" xlink:href="#Degradado_sin_nombre_8"/><linearGradient id="Degradado_sin_nombre_8-6" x1="0.01" y1="622.09" x2="1188.8" y2="622.09" xlink:href="#Degradado_sin_nombre_8"/><linearGradient id="Degradado_sin_nombre_8-7" x1="0.01" y1="519.58" x2="1402.13" y2="519.58" xlink:href="#Degradado_sin_nombre_8"/><linearGradient id="Degradado_sin_nombre_8-8" x1="0.01" y1="665.61" x2="952.78" y2="665.61" xlink:href="#Degradado_sin_nombre_8"/><linearGradient id="Degradado_sin_nombre_8-9" x1="0.01" y1="449.58" x2="1402.13" y2="449.58" xlink:href="#Degradado_sin_nombre_8"/><linearGradient id="Degradado_sin_nombre_8-10" x1="0" y1="354.47" x2="1402.13" y2="354.47" xlink:href="#Degradado_sin_nombre_8"/></defs><g class="cls-1"><g id="Capa_2" data-name="Capa 2"><g id="Capa_1-2" data-name="Capa 1"><g class="cls-2"><path class="cls-3" d="M487.15,252.26c130.34-12.47,265.12-25.35,397.07-21.72,88.77,2.44,164.39,33,237.51,62.63,59.41,24,120.83,48.89,188.39,57.94a542.34,542.34,0,0,0,92,4V274.5A626.16,626.16,0,0,1,1324,269c-65.85-9-123.77-33-179.8-56.18-69.79-28.87-135.71-56.15-216-57.15-133-1.81-267.91,21.52-398.33,44-109.5,18.83-222.73,38.3-335.07,43.21-64.34,2.81-129.52,3.3-194.78,2.49v35.27c65.27-2.5,132.73-5.07,199-7C294.46,270.7,392.42,261.33,487.15,252.26Z"/><path class="cls-4" d="M463.73,724.84c-83.79-24-170.45-48.75-259.19-52.7C136.31,669.08,67.86,676.92,0,689.42v72.69H606.68C558,751.79,510.38,738.18,463.73,724.84Z"/><path class="cls-5" d="M1395.58,762.11h6.55v-1.45C1400,761.15,1397.77,761.64,1395.58,762.11Z"/><path class="cls-6" d="M190.59,159.71c116-4.93,232.78-29.12,345.75-52.51C670,79.53,808,50.83,947.29,53.47c82.69,1.52,151.2,30.09,217.46,57.72,52.84,22,107.48,44.83,168.54,53.23a651.5,651.5,0,0,0,68.84,5.51v-71c-23.37-1-46.53-2.72-69.38-5.52-63.89-7.81-123.82-27-181.78-45.59-74-23.74-144-46.16-222.81-47.63C792.52-2.38,655,21.77,521.89,45.08,411.51,64.41,297.37,84.4,184.26,89.34,123.36,92,61.7,92.29,0,91.28v67.66C63.7,161.52,127.54,162.39,190.59,159.71Z"/><path class="cls-7" d="M193.66,225c110.72-4.83,223.13-24.16,331.84-42.86,131.56-22.62,267.39-46,403-44.32,85.18,1.06,156.4,30.53,225.27,59,54.6,22.59,111,45.95,173.72,54.54a599.85,599.85,0,0,0,74.62,5.27V187.9a678.47,678.47,0,0,1-72.35-5.84c-64.27-8.83-120.39-32.24-174.67-54.87-67.08-28-130.45-54.41-208.29-55.84-136.19-2.51-273,25.83-405.29,53.21-114,23.6-231.8,48-349.85,53-63.56,2.7-127.74,1.84-191.67-.73v50.57C65,228.22,129.78,227.74,193.66,225Z"/><path class="cls-8" d="M216.93,552.12c91.42,5.09,176.45,36,258.69,66,72.84,26.51,148.16,53.92,227.32,63.06,98.29,11.35,189.79,41.73,278.27,71.11q14.79,4.92,29.7,9.84H1188.8c-75-15.26-145.69-41-214.45-66.05-87-31.7-177-64.49-274.25-75.2C615.79,611.57,539.3,581,465.32,551.4c-81.6-32.64-158.68-63.46-245.74-68.46C145.73,478.68,72.35,490.48,0,508.57V574.2C71.46,558.14,143.92,548,216.93,552.12Z"/><path class="cls-9" d="M217.76,401.26c94.23,5.12,184.85,33.12,272.49,60.2C565.9,484.84,644.14,509,723.87,518.11c97.41,11.11,186.08,43.57,271.82,75,79.67,29.16,162,59.32,249.85,71.33,53.86,7.39,105.54,3.13,156.59-7.72V578.86a539.44,539.44,0,0,1-82.67,6.69,441.72,441.72,0,0,1-59.45-3.93c-84.5-11.42-161.68-40.52-236.33-68.65-80.9-30.5-164.55-62-256.62-70.31-79-7.11-159.36-20.37-237-33.21-104.56-17.26-212.69-35.12-318.57-38.07C140.87,369.39,70.1,377,0,388.59v33.88C71.93,407,144.73,397.3,217.76,401.26Z"/><path class="cls-10" d="M205.68,654.27c91.75,4.09,179.85,29.29,265,53.66,75,21.45,152.54,43.63,231.88,51.12,9.18.86,18.31,1.92,27.41,3.06H952.78c-80.93-26.76-164.55-53-252.8-63.23-82.1-9.48-158.8-37.4-233-64.39C382.75,603.82,303.16,574.85,215.48,570c-71.92-4-144,6.47-215.47,22.83v78.32C67.94,658.81,136.68,651.19,205.68,654.27Z"/><path class="cls-11" d="M212.16,353.5c107.63,3,216.63,21,322,38.41,77.23,12.75,157.09,25.94,235.17,33,95.49,8.58,180.74,40.72,263.18,71.79,73.37,27.66,149.24,56.26,230.91,67.3,47.3,6.39,93.18,4.21,138.67-3.14V476.26c-18.47,1.77-37,2.79-55.72,2.79a489.47,489.47,0,0,1-62.9-3.95c-77.7-10.06-147.65-37.51-215.3-64.05-75.94-29.79-154.47-60.6-242.68-65.58-183.4-10.33-386.22-14.91-619.91-13.92C137,331.83,68.16,336.88,0,343.76v26.61C70,359,140.92,351.54,212.16,353.5Z"/><path class="cls-12" d="M827,327.63c92.27,5.2,172.65,36.74,250.4,67.24,66.27,26,134.79,52.89,209.44,62.56,38.64,5,77.11,4.6,115.31.81V373c-7.54.26-15.08.45-22.63.45a548.4,548.4,0,0,1-72.8-4.67c-70.69-9.48-133.56-34.92-194.37-59.52-74.38-30.1-144.63-58.52-228.82-60.84-130.39-3.61-264.34,9.22-393.9,21.62-95.15,9.1-193.53,18.51-289.86,21.37-66.27,2-133.82,4.56-199.16,7.06L0,299v26.73c68-6.82,136.72-11.8,205.51-12.08C439.77,312.73,643.06,317.26,827,327.63Z"/></g></g></g></g></svg>