<svg width="20" height="18" viewBox="0 0 20 18" fill="none" xmlns="http://www.w3.org/2000/svg">
<path d="M19.625 7.9433C19.625 7.47917 19.4406 7.03405 19.1124 6.70586C18.7842 6.37767 18.3391 6.1933 17.875 6.1933H12.345L13.185 2.19455C13.2025 2.10705 13.2113 2.0108 13.2113 1.91455C13.2113 1.5558 13.0625 1.2233 12.8263 0.987048L11.8988 0.0682983L6.14125 5.8258C5.8175 6.14955 5.625 6.58705 5.625 7.0683V15.8183C5.625 16.2824 5.80937 16.7275 6.13756 17.0557C6.46575 17.3839 6.91087 17.5683 7.375 17.5683H15.25C15.9763 17.5683 16.5975 17.1308 16.86 16.5008L19.5025 10.332C19.5813 10.1308 19.625 9.9208 19.625 9.6933V7.9433ZM0.375 17.5683H3.875V7.0683H0.375V17.5683Z" fill="white"/>
</svg>
