<svg width="22" height="25" viewBox="0 0 22 25" fill="none" xmlns="http://www.w3.org/2000/svg">
<path d="M11 12.7109C11.4813 12.7109 11.8934 12.518 12.2364 12.1321C12.5794 11.7463 12.7506 11.2829 12.75 10.7422C12.75 10.2008 12.5785 9.73714 12.2355 9.35127C11.8925 8.96539 11.4807 8.77278 11 8.77344C10.5188 8.77344 10.1066 8.96638 9.76363 9.35225C9.42063 9.73813 9.24942 10.2014 9.25 10.7422C9.25 11.2836 9.4215 11.7472 9.7645 12.1331C10.1075 12.519 10.5193 12.7116 11 12.7109ZM11 19.9461C12.7792 18.1086 14.099 16.4391 14.9594 14.9376C15.8198 13.4361 16.25 12.1032 16.25 10.9391C16.25 9.15078 15.7431 7.68669 14.7293 6.54678C13.7154 5.40687 12.4723 4.83659 11 4.83594C9.52708 4.83594 8.28371 5.40622 7.26988 6.54678C6.25604 7.68734 5.74942 9.15144 5.75 10.9391C5.75 12.1039 6.18021 13.4371 7.04063 14.9386C7.90104 16.4401 9.22083 18.1093 11 19.9461ZM11 22.5547C8.65208 20.307 6.89858 18.2195 5.7395 16.2921C4.58042 14.3647 4.00058 12.5803 4 10.9391C4 8.47812 4.70379 6.51758 6.11138 5.05742C7.51896 3.59727 9.1485 2.86719 11 2.86719C12.8521 2.86719 14.4819 3.59727 15.8895 5.05742C17.2971 6.51758 18.0006 8.47812 18 10.9391C18 12.5797 17.4202 14.364 16.2605 16.2921C15.1008 18.2202 13.3473 20.3077 11 22.5547Z" fill="white"/>
</svg>
