<svg width="20" height="20" viewBox="0 0 20 20" fill="none" xmlns="http://www.w3.org/2000/svg">
<path d="M13.0026 19.8567H12.8821C8.76664 19.8567 6.78309 18.2347 6.44014 14.6012C6.40306 14.2212 6.68113 13.8783 7.07043 13.8412C7.44118 13.8041 7.7934 14.0914 7.83048 14.4715C8.09928 17.3819 9.47108 18.4664 12.8913 18.4664H13.0118C16.7843 18.4664 18.119 17.1317 18.119 13.3592V7.31583C18.119 3.54337 16.7843 2.20864 13.0118 2.20864H12.8913C9.45255 2.20864 8.08074 3.31164 7.83048 6.27771C7.78414 6.65773 7.45972 6.94507 7.07043 6.908C6.68113 6.88019 6.40306 6.53724 6.43087 6.15721C6.74601 2.46817 8.73884 0.818298 12.8821 0.818298H13.0026C17.5536 0.818298 19.5001 2.76478 19.5001 7.31583V13.3592C19.5001 17.9103 17.5536 19.8567 13.0026 19.8567Z" fill="white"/>
<path d="M12.7791 11.0327H2.23106C1.85103 11.0327 1.53589 10.7176 1.53589 10.3375C1.53589 9.95751 1.85103 9.64236 2.23106 9.64236H12.7791C13.1591 9.64236 13.4743 9.95751 13.4743 10.3375C13.4743 10.7176 13.1591 11.0327 12.7791 11.0327Z" fill="white"/>
<path d="M4.29795 14.1379C4.12184 14.1379 3.94573 14.073 3.8067 13.934L0.7016 10.8289C0.4328 10.5601 0.4328 10.1152 0.7016 9.84638L3.8067 6.74127C4.0755 6.47247 4.52041 6.47247 4.78921 6.74127C5.05801 7.01007 5.05801 7.45498 4.78921 7.72378L2.17536 10.3376L4.78921 12.9515C5.05801 13.2203 5.05801 13.6652 4.78921 13.934C4.65944 14.073 4.47406 14.1379 4.29795 14.1379Z" fill="white"/>
</svg>
