<svg xmlns="http://www.w3.org/2000/svg" xmlns:xlink="http://www.w3.org/1999/xlink" viewBox="0 0 458.6 447.69"><defs><style>.cls-1{fill:#fff;}.cls-2{mask:url(#mask);}.cls-3{fill:url(#Degradado_sin_nombre_8);}</style><mask id="mask" x="0" y="0" width="458.6" height="447.69" maskUnits="userSpaceOnUse"><path class="cls-1" d="M357.55,164.41c-24.22-4.59-49.26-9.34-74.37-9.63-39.24-.46-79.13,4.17-117.74,8.63-30.93,3.58-62.91,7.27-94.44,8.37-15.42.53-31.67,1.07-48.46,1.55v27.08c18.11.34,36.19.24,54-.64,32.87-1.62,66.29-8.26,98.6-14.67,39.61-7.86,80.59-16,121.27-15.13,24.35.51,46.46,8.55,67.85,16.32,16.77,6.09,34.11,12.39,52.25,14.9,6.42.89,13,1.44,19.54,1.76V174.67q-9.87-.51-19.66-1.28C396.51,171.81,376.7,168.05,357.55,164.41Z"/><path class="cls-1" d="M348.63,136.31c-27-.63-55-1.28-82.43-1.36-78-.22-142.52,0-203,.59-13.55.13-27.15.89-40.69,2v29.85c16.71-.48,32.87-1,48.23-1.55,31.26-1.09,63.1-4.77,93.9-8.32,38.82-4.49,78.9-9.13,118.59-8.68,25.7.3,51,5.1,75.54,9.75,19,3.6,38.6,7.33,58.14,8.88,6.33.51,12.71.91,19.12,1.24V138.18c-6.3-.32-12.61-.53-18.92-.59C394.29,137.38,371.08,136.84,348.63,136.31Z"/><path class="cls-1" d="M166.21,260.2c38.44-4.17,78.19-8.48,117.11-7.27,26.18.82,48.48,11.05,70.05,20.94,17.52,8,35.63,16.34,55.56,19.37a142.45,142.45,0,0,0,27.13,1.33V267.63a164.76,164.76,0,0,1-23-1.84c-19.42-3-36.5-11-53-18.78-20.59-9.65-40-18.77-63.71-19.1-39.23-.61-79,7.19-117.48,14.69C146.52,248.89,113.12,255.4,80,257c-19,.94-38.2,1.1-57.45.83v11.79c19.25-.83,39.15-1.69,58.69-2.35C109.38,266.36,138.27,263.23,166.21,260.2Z"/><path class="cls-1" d="M388.85,403.85c-26.69-4.14-51.35-14.38-75.21-24.27-24.89-10.33-50.62-21-78.47-24.61-24.21-3.13-47.62-11.32-70.25-19.25-25.42-8.9-51.7-18.11-78.57-19.76-21.25-1.31-42.62,2.05-63.81,7.31v16.35c21.34-5.92,43.07-9.72,65.2-8.29,26.89,1.75,51.23,12.79,74.78,23.46,21.37,9.68,43.47,19.7,67.33,22.67,29.57,3.7,56.53,14.83,82.59,25.59,24.07,9.94,48.95,20.22,75.44,24.32,16.74,2.59,32.6.81,48.18-3.38V401.46a134.66,134.66,0,0,1-30.33,3.67A110.15,110.15,0,0,1,388.85,403.85Z"/><path class="cls-1" d="M159.31,418.15c-24.72-8-50.27-16.3-76.45-17.62-20.12-1-40.3,1.6-60.32,5.78V430.6H201.47C187.11,427.15,173.06,422.61,159.31,418.15Z"/><path class="cls-1" d="M434.13,430.6h1.93v-.48Z"/><path class="cls-1" d="M417.85,101.7c-23.14,1.25-46.7,3.82-69.49,6.31-32.49,3.55-66,7.18-99.3,7.15-33.7-.06-67.66-4.11-100.5-8-30.51-3.64-62.06-7.4-93.17-7.92A250.35,250.35,0,0,0,22.54,101V131.5c13.49-1.06,27.06-1.8,40.62-1.94,60.49-.63,125-.81,203.06-.59,27.54.08,55.52.73,82.57,1.37,22.42.52,45.61,1.06,68.41,1.27,6.3.06,12.59.27,18.86.58V101.68A181.35,181.35,0,0,0,417.85,101.7Z"/><path class="cls-1" d="M78.75,229.26c34.2-1.65,68.65-9.73,102-17.55,39.42-9.25,80.12-18.84,121.2-18,24.39.51,44.59,10.06,64.13,19.3,15.59,7.36,31.7,15,49.71,17.79a170.5,170.5,0,0,0,20.3,1.84V209c-6.89-.33-13.72-.91-20.46-1.85-18.84-2.61-36.52-9-53.61-15.24-21.84-7.93-42.47-15.42-65.71-15.91-40-.86-80.57,7.21-119.82,15-32.55,6.46-66.22,13.14-99.58,14.79-18,.89-36.14,1-54.34.65V229C41.33,229.87,60.16,230.16,78.75,229.26Z"/><path class="cls-1" d="M79.66,251.07c32.65-1.62,65.8-8.08,97.86-14.33,38.8-7.56,78.86-15.37,118.86-14.81,25.12.35,46.13,10.2,66.44,19.73,16.1,7.55,32.75,15.36,51.23,18.23a157,157,0,0,0,22,1.76v-23a175.92,175.92,0,0,1-21.33-2c-19-2.95-35.51-10.77-51.52-18.34-19.78-9.35-38.47-18.18-61.43-18.66-40.16-.84-80.51,8.63-119.53,17.78-33.61,7.89-68.36,16.05-103.18,17.72-18.74.9-37.67.62-56.53-.24v16.9C41.7,252.16,60.82,252,79.66,251.07Z"/><path class="cls-1" d="M86.52,360.42c27,1.7,52,12,76.29,22.05,21.49,8.86,43.7,18,67.05,21.08,29,3.79,56,13.95,82.06,23.77l8.76,3.28h52.47c-22.11-5.1-43-13.7-63.25-22.07C284.24,397.93,257.7,387,229,383.39c-24.87-3.1-47.43-13.33-69.24-23.21C135.71,349.27,113,339,87.3,337.3c-21.78-1.43-43.42,2.51-64.76,8.56V367.8C43.62,362.43,65,359.05,86.52,360.42Z"/><path class="cls-1" d="M86.76,310c27.79,1.71,54.52,11.07,80.37,20.12,22.31,7.81,45.38,15.89,68.9,18.93,28.73,3.71,54.88,14.56,80.16,25.05,23.5,9.75,47.79,19.83,73.69,23.85,15.89,2.46,31.13,1,46.18-2.58v-26a140.82,140.82,0,0,1-24.38,2.23,115.8,115.8,0,0,1-17.53-1.31c-24.92-3.82-47.69-13.54-69.7-22.95-23.86-10.19-48.53-20.73-75.69-23.5-23.3-2.37-47-6.81-69.91-11.1C148,307,116.13,301,84.9,300c-20.81-.67-41.69,1.88-62.36,5.75v11.32C43.76,311.92,65.22,308.67,86.76,310Z"/><path class="cls-1" d="M83.2,394.56c27.06,1.37,53,9.79,78.17,17.93,22.12,7.17,45,14.59,68.38,17.09,2.71.29,5.4.64,8.09,1h65.7C279.67,421.66,255,412.88,229,409.47,204.77,406.3,182.15,397,160.27,388,135.42,377.7,112,368,86.09,366.38c-21.21-1.33-42.48,2.16-63.55,7.63v26.18C42.58,396.08,62.85,393.53,83.2,394.56Z"/><path class="cls-1" d="M49.54,59c30.27,1.1,60.27,7.95,89.28,14.57,31.32,7.15,63.7,14.54,96.14,14.54h.58c35.15-.09,70.6-7.07,104.88-13.82C365.76,69.34,392,64.18,418,61.8a135.93,135.93,0,0,1,18.1-.41v-24a118.6,118.6,0,0,0-16.68.36c-27.8,2.57-55.71,9.27-82.71,15.74-34.77,8.34-70.72,17-107.26,17.06h-.48c-32.9,0-64.61-9.1-95.29-17.9C105.49,44.6,76.39,36.25,46.79,35.14a137.88,137.88,0,0,0-24.25,1.32V60.39A164.86,164.86,0,0,1,49.54,59Z"/><path class="cls-1" d="M136.1,22c30.09,8.08,61.2,16.44,92.82,16.44h.44c35.47-.09,70.92-8.06,105.2-15.76,8.44-1.9,17-3.81,25.55-5.63H257.75c-9.43.85-18.9,1.37-28.39,1.39h-.48a249,249,0,0,1-25.5-1.39h-86C123.67,18.7,129.91,20.37,136.1,22Z"/><path class="cls-1" d="M85.11,294c31.74,1,63.89,7,95,12.84,22.77,4.26,46.33,8.67,69.36,11,28.16,2.87,53.3,13.61,77.62,24,21.63,9.24,44,18.8,68.09,22.49a122.09,122.09,0,0,0,40.9-1.05V335.06a152.48,152.48,0,0,1-16.43.94,126.49,126.49,0,0,1-18.55-1.33c-22.92-3.36-43.55-12.53-63.5-21.4C315.18,303.31,292,293,266,291.35c-54.09-3.45-113.9-5-182.83-4.65a556.62,556.62,0,0,0-60.64,4.08v8.89C43.19,295.86,64.1,293.38,85.11,294Z"/><path class="cls-1" d="M418.57,67.75c-25.65,2.35-51.68,7.47-76.85,12.43C307.13,87,271.36,94,235.56,94.13H235c-33.2,0-66-7.48-97.64-14.71-28.7-6.55-58.38-13.33-88-14.4a159.19,159.19,0,0,0-26.76,1.43V95a251.24,251.24,0,0,1,33-1.76c31.45.52,63.18,4.3,93.86,8,32.64,3.9,66.4,7.92,99.72,8h.78c32.6,0,65.72-3.62,97.77-7.12,22.88-2.5,46.53-5.08,69.86-6.34,6.26-.33,12.44-.31,18.57,0V67.35A132,132,0,0,0,418.57,67.75Z"/><path class="cls-1" d="M266.44,285.39c27.21,1.73,50.92,12.28,73.84,22.47,19.55,8.69,39.76,17.68,61.78,20.91a131.67,131.67,0,0,0,34,.27V300.55c-2.22.09-4.45.15-6.67.15a142.38,142.38,0,0,1-21.47-1.56c-20.85-3.17-39.39-11.67-57.33-19.89-21.93-10.06-42.65-19.56-67.48-20.34-38.46-1.2-78,3.08-116.17,7.23-28.06,3-57.08,6.19-85.49,7.14-19.58.66-39.55,1.53-58.86,2.36h-.05v9.1a561.91,561.91,0,0,1,60.61-4C152.24,280.4,212.2,281.92,266.44,285.39Z"/><path class="cls-1" d="M47,29.17C77.45,30.3,107,38.77,135.49,47c30.23,8.68,61.49,17.64,93.44,17.64h.46c35.76-.09,71.33-8.62,105.72-16.87,27.22-6.53,55.37-13.28,83.65-15.9a122.8,122.8,0,0,1,17.3-.38V17.08h-43.6c-19,3-37.93,7.29-56.43,11.44-34.63,7.79-70.44,15.84-106.65,15.93h-.46c-32.5,0-64-8.47-94.56-16.67C120.2,24,105.8,20.11,91.24,17.08H22.54V30.43A142,142,0,0,1,47,29.17Z"/></mask><linearGradient id="Degradado_sin_nombre_8" y1="223.84" x2="458.6" y2="223.84" gradientUnits="userSpaceOnUse"><stop offset="0" stop-color="#fc1f6f"/><stop offset="1" stop-color="#4ec3f9"/></linearGradient></defs><g id="Capa_2" data-name="Capa 2"><g id="Capa_1-2" data-name="Capa 1"><g class="cls-2"><rect class="cls-3" width="458.6" height="447.69"/></g></g></g></svg>