<svg xmlns="http://www.w3.org/2000/svg" xmlns:xlink="http://www.w3.org/1999/xlink" viewBox="0 0 1402.16 762.11"><defs><style>.cls-1{opacity:0.3;}.cls-2{fill:url(#Degradado_sin_nombre_10);}.cls-3{fill:url(#Degradado_sin_nombre_10-2);}.cls-4{fill:url(#Degradado_sin_nombre_10-3);}.cls-5{fill:url(#Degradado_sin_nombre_10-4);}.cls-6{fill:url(#Degradado_sin_nombre_10-5);}.cls-7{fill:url(#Degradado_sin_nombre_10-6);}.cls-8{fill:url(#Degradado_sin_nombre_10-7);}</style><linearGradient id="Degradado_sin_nombre_10" x1="0.03" y1="816.42" x2="1402.13" y2="816.42" gradientTransform="matrix(1, 0, 0, -1, 0, 1072)" gradientUnits="userSpaceOnUse"><stop offset="0" stop-color="#fc1f6f"/><stop offset="1" stop-color="#4ec3f9"/></linearGradient><linearGradient id="Degradado_sin_nombre_10-2" x1="1395.59" y1="310.61" x2="1402.14" y2="310.61" xlink:href="#Degradado_sin_nombre_10"/><linearGradient id="Degradado_sin_nombre_10-3" x1="0.01" y1="987.03" x2="1402.14" y2="987.03" xlink:href="#Degradado_sin_nombre_10"/><linearGradient id="Degradado_sin_nombre_10-4" x1="0" y1="908.09" x2="1402.12" y2="908.09" xlink:href="#Degradado_sin_nombre_10"/><linearGradient id="Degradado_sin_nombre_10-5" x1="0.01" y1="552.4" x2="1402.14" y2="552.4" xlink:href="#Degradado_sin_nombre_10"/><linearGradient id="Degradado_sin_nombre_10-6" x1="0.01" y1="622.4" x2="1402.1" y2="622.4" xlink:href="#Degradado_sin_nombre_10"/><linearGradient id="Degradado_sin_nombre_10-7" x1="0.01" y1="717.53" x2="1402.16" y2="717.53" xlink:href="#Degradado_sin_nombre_10"/></defs><g id="Capa_2" data-name="Capa 2"><g id="Capa_1-2" data-name="Capa 1"><g id="Capa_2-2" data-name="Capa 2"><g id="Capa_1-2-2" data-name="Capa 1-2"><g class="cls-1"><path class="cls-2" d="M487.16,252.26c130.34-12.47,265.12-25.35,397.07-21.72,88.77,2.44,164.39,33,237.51,62.63,59.41,24,120.83,48.89,188.39,57.94a542,542,0,0,0,92,4V274.5A626.15,626.15,0,0,1,1324,269c-65.85-9-123.77-33-179.8-56.18-69.79-28.87-135.71-56.15-216-57.15-133-1.81-267.91,21.52-398.33,44C420.38,218.5,307.15,238,194.81,242.88c-64.34,2.81-129.52,3.3-194.78,2.49v35.27c65.27-2.5,132.73-5.07,199-7C294.47,270.7,392.43,261.33,487.16,252.26Z"/><path class="cls-3" d="M1395.59,762.11h6.55v-1.45C1400,761.15,1397.78,761.64,1395.59,762.11Z"/><path class="cls-4" d="M190.6,159.71c116-4.93,232.78-29.12,345.75-52.51C670,79.53,808,50.83,947.3,53.47,1030,55,1098.5,83.56,1164.76,111.19c52.84,22,107.48,44.83,168.54,53.23a652.48,652.48,0,0,0,68.84,5.51v-71c-23.37-1-46.53-2.72-69.38-5.52-63.89-7.81-123.82-27-181.78-45.59C1077,24.08,1007,1.66,928.17.19,792.53-2.38,655,21.77,521.9,45.08,411.52,64.41,297.38,84.4,184.27,89.34,123.37,92,61.71,92.29,0,91.28v67.66C63.71,161.52,127.55,162.39,190.6,159.71Z"/><path class="cls-5" d="M193.67,225c110.72-4.83,223.13-24.16,331.84-42.86,131.56-22.62,267.39-46,403-44.32,85.18,1.06,156.4,30.53,225.27,59,54.6,22.59,111,46,173.72,54.54a598.87,598.87,0,0,0,74.62,5.27V187.9a681.78,681.78,0,0,1-72.35-5.84c-64.27-8.83-120.39-32.24-174.67-54.87-67.08-28-130.45-54.41-208.29-55.84-136.19-2.51-273,25.83-405.29,53.21-114,23.6-231.8,48-349.85,53-63.56,2.7-127.74,1.84-191.67-.73V227.4C65,228.22,129.79,227.74,193.67,225Z"/><path class="cls-6" d="M217.77,401.26c94.23,5.12,184.85,33.12,272.49,60.2,75.65,23.38,153.89,47.54,233.62,56.65,97.41,11.11,186.08,43.57,271.82,75,79.67,29.16,162,59.32,249.85,71.33,53.86,7.39,105.54,3.13,156.59-7.72V578.86a539.77,539.77,0,0,1-82.67,6.69,441.13,441.13,0,0,1-59.45-3.93c-84.5-11.42-161.68-40.52-236.33-68.65-80.9-30.5-164.55-62-256.62-70.31-79-7.11-159.36-20.37-237-33.21-104.56-17.26-212.69-35.12-318.57-38.07C140.88,369.39,70.11,377,0,388.59v33.88C71.94,407,144.74,397.3,217.77,401.26Z"/><path class="cls-7" d="M212.17,353.5c107.63,3,216.63,21,322,38.41,77.23,12.75,157.09,25.94,235.17,33,95.49,8.58,180.74,40.72,263.18,71.79,73.37,27.66,149.24,56.26,230.91,67.3,47.3,6.39,93.18,4.21,138.67-3.14v-84.6c-18.47,1.77-37,2.79-55.72,2.79a489.91,489.91,0,0,1-62.9-3.95c-77.7-10.06-147.65-37.51-215.3-64.05-75.94-29.79-154.47-60.6-242.68-65.58-183.4-10.33-386.22-14.91-619.91-13.92C137,331.83,68.17,336.88,0,343.76v26.61C70,359,140.93,351.54,212.17,353.5Z"/><path class="cls-8" d="M827,327.63c92.27,5.2,172.65,36.74,250.4,67.24,66.27,26,134.79,52.89,209.44,62.56,38.64,5,77.11,4.6,115.31.81V373c-7.54.26-15.08.45-22.63.45a548.75,548.75,0,0,1-72.8-4.67c-70.69-9.48-133.56-34.92-194.37-59.52-74.38-30.1-144.63-58.52-228.82-60.84-130.39-3.61-264.34,9.22-393.9,21.62-95.15,9.1-193.53,18.51-289.86,21.37C133.51,293.41,66,296,.62,298.47L0,299v26.73c68-6.82,136.72-11.8,205.51-12.08C439.78,312.73,643.07,317.26,827,327.63Z"/></g></g></g></g></g></svg>