<svg width="16" height="11" viewBox="0 0 16 11" fill="none" xmlns="http://www.w3.org/2000/svg">
<path d="M7.125 10.9433C6.87709 10.9433 6.66913 10.8593 6.50113 10.6913C6.33313 10.5233 6.24942 10.3156 6.25 10.0683C6.25 9.82038 6.334 9.61243 6.502 9.44443C6.67 9.27643 6.87767 9.19272 7.125 9.1933H8.875C9.12292 9.1933 9.33088 9.2773 9.49888 9.4453C9.66688 9.6133 9.75059 9.82097 9.75 10.0683C9.75 10.3162 9.666 10.5242 9.498 10.6922C9.33 10.8602 9.12234 10.9439 8.875 10.9433H7.125ZM1 2.1933C0.752086 2.1933 0.544128 2.1093 0.376128 1.9413C0.208128 1.7733 0.12442 1.56563 0.125003 1.3183C0.125003 1.07038 0.209003 0.862427 0.377003 0.694427C0.545003 0.526427 0.75267 0.442718 1 0.443301H15C15.2479 0.443301 15.4559 0.527301 15.6239 0.695301C15.7919 0.863301 15.8756 1.07097 15.875 1.3183C15.875 1.56622 15.791 1.77418 15.623 1.94218C15.455 2.11018 15.2473 2.19388 15 2.1933H1ZM3.625 6.5683C3.37709 6.5683 3.16913 6.4843 3.00113 6.3163C2.83313 6.1483 2.74942 5.94063 2.75 5.6933C2.75 5.44538 2.834 5.23743 3.002 5.06943C3.17 4.90143 3.37767 4.81772 3.625 4.8183H12.375C12.6229 4.8183 12.8309 4.9023 12.9989 5.0703C13.1669 5.2383 13.2506 5.44597 13.25 5.6933C13.25 5.94122 13.166 6.14918 12.998 6.31718C12.83 6.48518 12.6223 6.56888 12.375 6.5683H3.625Z" fill="white"/>
</svg>
