<svg width="18" height="18" viewBox="0 0 18 18" fill="none" xmlns="http://www.w3.org/2000/svg">
<path d="M9.0001 4.75581C8.22134 4.75581 7.46006 4.98674 6.81254 5.41939C6.16502 5.85205 5.66034 6.46701 5.36232 7.18649C5.0643 7.90597 4.98633 8.69767 5.13826 9.46147C5.29019 10.2253 5.6652 10.9269 6.21587 11.4775C6.76654 12.0282 7.46813 12.4032 8.23193 12.5551C8.99573 12.7071 9.78743 12.6291 10.5069 12.3311C11.2264 12.0331 11.8414 11.5284 12.274 10.8809C12.7067 10.2333 12.9376 9.47207 12.9376 8.69331C12.9365 7.64935 12.5213 6.64846 11.7831 5.91027C11.0449 5.17208 10.0441 4.75689 9.0001 4.75581ZM9.0001 11.3183C8.48092 11.3183 7.97341 11.1644 7.54173 10.8759C7.11005 10.5875 6.7736 10.1775 6.57491 9.69785C6.37624 9.21819 6.32425 8.69039 6.42554 8.18119C6.52682 7.67199 6.77683 7.20426 7.14394 6.83715C7.51106 6.47004 7.97879 6.22003 8.48799 6.11874C8.99719 6.01746 9.52499 6.06944 10.0046 6.26812C10.4843 6.4668 10.8943 6.80326 11.1827 7.23493C11.4711 7.66661 11.6251 8.17413 11.6251 8.69331C11.6251 9.3895 11.3485 10.0572 10.8563 10.5495C10.364 11.0417 9.69629 11.3183 9.0001 11.3183ZM16.2189 8.87049C16.2221 8.75237 16.2221 8.63424 16.2189 8.51612L17.4428 6.98706C17.5069 6.90677 17.5514 6.81254 17.5724 6.71195C17.5935 6.61135 17.5907 6.50721 17.5642 6.40792C17.3635 5.65372 17.0634 4.92959 16.6717 4.25459C16.6204 4.16626 16.5492 4.09112 16.4637 4.03515C16.3783 3.97919 16.2809 3.94394 16.1795 3.93221L14.2337 3.71565C14.1528 3.63034 14.0707 3.54831 13.9876 3.46956L13.7579 1.51885C13.7461 1.41731 13.7107 1.31993 13.6546 1.23447C13.5985 1.14902 13.5232 1.07786 13.4347 1.02666C12.7595 0.63566 12.0354 0.335826 11.2814 0.134985C11.182 0.108568 11.0779 0.105866 10.9773 0.127097C10.8767 0.148328 10.7825 0.192897 10.7022 0.257212L9.17729 1.47456H8.82291L7.29385 0.25311C7.21357 0.188936 7.11933 0.144515 7.01874 0.123428C6.91815 0.10234 6.81401 0.105175 6.71471 0.131704C5.96064 0.332703 5.23655 0.632819 4.56139 1.0242C4.47305 1.07549 4.39791 1.1467 4.34195 1.23214C4.28598 1.31759 4.25073 1.41492 4.23901 1.51639L4.02244 3.46545C3.93713 3.54694 3.8551 3.62897 3.77635 3.71155L1.82565 3.93549C1.7241 3.94731 1.62672 3.98268 1.54127 4.03879C1.45582 4.09491 1.38465 4.17021 1.33346 4.2587C0.942453 4.93395 0.642619 5.65802 0.441778 6.41202C0.415362 6.51138 0.41266 6.61555 0.43389 6.71615C0.455121 6.81675 0.49969 6.91095 0.564005 6.99116L1.78135 8.51612V8.87049L0.559903 10.3996C0.495729 10.4798 0.451308 10.5741 0.430221 10.6747C0.409133 10.7753 0.411968 10.8794 0.438497 10.9787C0.639137 11.7329 0.939272 12.457 1.331 13.132C1.38229 13.2204 1.45349 13.2955 1.53894 13.3515C1.62438 13.4074 1.72171 13.4427 1.82318 13.4544L3.76897 13.671C3.85045 13.7563 3.93248 13.8383 4.01506 13.9171L4.24229 15.8678C4.2541 15.9693 4.28947 16.0667 4.34559 16.1521C4.4017 16.2376 4.477 16.3088 4.56549 16.3599C5.24074 16.751 5.96481 17.0508 6.71881 17.2516C6.81817 17.278 6.92235 17.2807 7.02294 17.2595C7.12354 17.2383 7.21774 17.1937 7.29795 17.1294L8.82291 15.9121C8.94104 15.9153 9.05916 15.9153 9.17729 15.9121L10.7063 17.136C10.7866 17.2001 10.8809 17.2446 10.9815 17.2656C11.0821 17.2867 11.1862 17.2839 11.2855 17.2574C12.0397 17.0567 12.7638 16.7566 13.4388 16.3649C13.5271 16.3136 13.6023 16.2424 13.6583 16.1569C13.7142 16.0715 13.7495 15.9742 13.7612 15.8727L13.9778 13.9269C14.0631 13.846 14.1451 13.7639 14.2238 13.6808L16.1746 13.4511C16.2761 13.4393 16.3735 13.4039 16.4589 13.3478C16.5444 13.2917 16.6155 13.2164 16.6667 13.1279C17.0577 12.4527 17.3576 11.7286 17.5584 10.9746C17.5848 10.8752 17.5875 10.7711 17.5663 10.6705C17.5451 10.5699 17.5005 10.4757 17.4362 10.3955L16.2189 8.87049ZM14.8981 8.33729C14.9121 8.57443 14.9121 8.81218 14.8981 9.04932C14.8884 9.21168 14.9392 9.37188 15.0409 9.49885L16.2049 10.9533C16.0713 11.3778 15.9003 11.7895 15.6939 12.1837L13.8399 12.3937C13.6785 12.4117 13.5294 12.4888 13.4216 12.6103C13.2637 12.7879 13.0955 12.9561 12.9179 13.114C12.7964 13.2218 12.7193 13.3709 12.7013 13.5323L12.4955 15.3846C12.1013 15.5912 11.6895 15.7622 11.265 15.8957L9.80975 14.7316C9.6933 14.6386 9.54865 14.588 9.39959 14.5881H9.36022C9.12308 14.602 8.88532 14.602 8.64818 14.5881C8.48583 14.5783 8.32563 14.6292 8.19865 14.7308L6.74014 15.8957C6.31565 15.7621 5.90388 15.5911 5.50967 15.3846L5.29967 13.5332C5.28175 13.3717 5.20458 13.2226 5.08311 13.1148C4.90552 12.9569 4.73734 12.7887 4.57943 12.6111C4.47159 12.4896 4.32253 12.4125 4.16108 12.3946L2.30881 12.1878C2.10225 11.7937 1.93122 11.3819 1.79775 10.9574L2.96178 9.50213C3.06342 9.37516 3.11429 9.21496 3.10451 9.0526C3.09057 8.81546 3.09057 8.57771 3.10451 8.34057C3.11429 8.17822 3.06342 8.01802 2.96178 7.89104L1.79775 6.43334C1.93132 6.00886 2.10235 5.59708 2.30881 5.20288L4.16026 4.99288C4.3217 4.97495 4.47077 4.89779 4.57861 4.77631C4.73652 4.59872 4.9047 4.43054 5.08229 4.27264C5.20425 4.16473 5.28173 4.01532 5.29967 3.85346L5.50557 2.00202C5.89973 1.79545 6.31152 1.62443 6.73604 1.49096L8.19127 2.65499C8.31825 2.75663 8.47845 2.80749 8.6408 2.79772C8.87794 2.78377 9.11569 2.78377 9.35283 2.79772C9.51519 2.80749 9.67539 2.75663 9.80237 2.65499L11.2601 1.49096C11.6845 1.62453 12.0963 1.79555 12.4905 2.00202L12.7005 3.85346C12.7185 4.01491 12.7956 4.16398 12.9171 4.27182C13.0947 4.42972 13.2629 4.5979 13.4208 4.77549C13.5286 4.89697 13.6777 4.97413 13.8391 4.99206L15.6914 5.19795C15.898 5.59212 16.069 6.0039 16.2024 6.42842L15.0384 7.88366C14.9358 8.0117 14.8849 8.17355 14.8957 8.33729H14.8981Z" fill="white"/>
</svg>
