<svg width="20" height="14" viewBox="0 0 20 14" fill="none" xmlns="http://www.w3.org/2000/svg">
<path d="M10 0.130783C5.625 0.130783 1.88875 2.85203 0.375 6.69328C1.88875 10.5345 5.625 13.2558 10 13.2558C14.375 13.2558 18.1113 10.5345 19.625 6.69328C18.1113 2.85203 14.375 0.130783 10 0.130783ZM10 11.0683C7.585 11.0683 5.625 9.10828 5.625 6.69328C5.625 4.27828 7.585 2.31828 10 2.31828C12.415 2.31828 14.375 4.27828 14.375 6.69328C14.375 9.10828 12.415 11.0683 10 11.0683ZM10 4.06828C8.5475 4.06828 7.375 5.24078 7.375 6.69328C7.375 8.14578 8.5475 9.31828 10 9.31828C11.4525 9.31828 12.625 8.14578 12.625 6.69328C12.625 5.24078 11.4525 4.06828 10 4.06828Z" fill="white"/>
</svg>
